# xmcd
# 
# Track frame offsets:
#     150
#     18517
#     32645
#     44394
#     60243
#     77370
#     94601
#     112530
#     129040
#     146533
#     164987
#     179706
#     198940
#     210686
# 
# Disc length: 2974
# 
# Revision: 6
# Processed by: cddbd v1.5.2PL0 Copyright (c) Steve Scherf et al.
# Submitted via: BonkEnc v1.0.8
# 
DISCID=b00b9c0e
DTITLE=Amado Batista - Amado Batista
DYEAR=0
DGENRE=
TTITLE0=Nossa Senhora Aparecida
TTITLE1=Porque eu Te amo Tanto
TTITLE2=Amado, Amante e Amigo
TTITLE3=Meu Sol, Minha Lua
TTITLE4=Lero - lero
TTITLE5=É só me ligar
TTITLE6=Vá Embora
TTITLE7=Tempo Perdido
TTITLE8=Esse Cara não Merece te Ver Chorar
TTITLE9=Agora Estou Apaixonado
TTITLE10=Um Cara Feliz
TTITLE11=No Meu País e Assim
TTITLE12=Eu Te amo Meu Amor
TTITLE13=Pra Chamar sua Atenção
EXTD=
EXTT0=
EXTT1=
EXTT2=
EXTT3=
EXTT4=
EXTT5=
EXTT6=
EXTT7=
EXTT8=
EXTT9=
EXTT10=
EXTT11=
EXTT12=
EXTT13=
PLAYORDER=
